# xmcd
#
# Track frame offsets:
#  150
#  14740
#  29762
#  45362
#  64515
#  82713
#  98082
#  112602
#  130438
#  153111
#  170420
#  186159
#
# Disc length: 2857 seconds
#
# Revision: 0
# Processed by: cddbd v1.5.1PL2 Copyright (c) Steve Scherf et al.
# Submitted via: Collectorz.com_Music_Collector 6.9
#
DISCID=8a0b270c
DTITLE=The Van Veen Band - Drive
DYEAR=2005
DGENRE=Blues
TTITLE0=Two Sticks Road
TTITLE1=Chances
TTITLE2=Ain't Yo Bi'ness
TTITLE3=Come Together
TTITLE4=The Way I Feel
TTITLE5=Whole Lotta Love
TTITLE6=Drive
TTITLE7=Looks Like Water
TTITLE8=Think Of You
TTITLE9=So Long My Friend
TTITLE10=I Need You
TTITLE11=Tin Head
EXTD=
EXTT0=
EXTT1=
EXTT2=
EXTT3=
EXTT4=
EXTT5=
EXTT6=
EXTT7=
EXTT8=
EXTT9=
EXTT10=
EXTT11=
PLAYORDER=
